# xmcd
#
# Track frame offsets:
#	150
#	44790
#	60761
#	76594
#	93612
#	104485
#	121886
#	135626
#	151418
#	165529
#	177089
#
# Disc length: 2567 seconds
#
# Revision: 2
# Processed by: cddbd v1.4PL0 Copyright (c) Steve Scherf et al.
# Submitted via: audiograbber 1.80
#
DISCID=840a050b
DTITLE=Santos e Sandra - Na Rocha me Escondo
DYEAR=1900
DGENRE=
TTITLE0=Data Track
TTITLE1=Deus Vivo
TTITLE2=Na Rocha me Escondo
TTITLE3=Salmo V
TTITLE4=Eu te Louvarei
TTITLE5=Além do Céu Azul
TTITLE6=O Rosto de Cristo
TTITLE7=Fica Comigo
TTITLE8=Fala Senhor
TTITLE9=Se Eu Caminhar
TTITLE10=Água da Vida
EXTD=
EXTT0=
EXTT1=
EXTT2=
EXTT3=
EXTT4=
EXTT5=
EXTT6=
EXTT7=
EXTT8=
EXTT9=
EXTT10=
PLAYORDER=
